<mxfile host="app.diagrams.net" modified="2023-03-03T21:58:42.083Z" agent="5.0 (Windows NT 10.0; Win64; x64) AppleWebKit/537.36 (KHTML, like Gecko) Chrome/110.0.0.0 Safari/537.36 Edg/110.0.1587.57" etag="SGhgMyq1FbTJ6G2OSPeQ" version="21.0.2" type="github">
  <diagram name="Page-1" id="qrOZACww4R-Er6_i6r7u">
    <mxGraphModel dx="784" dy="778" grid="1" gridSize="10" guides="1" tooltips="1" connect="1" arrows="1" fold="1" page="1" pageScale="1" pageWidth="850" pageHeight="1100" math="0" shadow="0">
      <root>
        <mxCell id="0" />
        <mxCell id="1" parent="0" />
        <mxCell id="euV3vJY-Mf-4u7N78ft6-1" value="Usuarios" style="swimlane;fontStyle=0;childLayout=stackLayout;horizontal=1;startSize=30;horizontalStack=0;resizeParent=1;resizeParentMax=0;resizeLast=0;collapsible=1;marginBottom=0;whiteSpace=wrap;html=1;swimlaneLine=1;" vertex="1" parent="1">
          <mxGeometry x="80" y="80" width="210" height="300" as="geometry">
            <mxRectangle x="80" y="130" width="90" height="30" as="alternateBounds" />
          </mxGeometry>
        </mxCell>
        <mxCell id="euV3vJY-Mf-4u7N78ft6-2" value="pessoa_usuaria_id&amp;nbsp;| Primary Key" style="text;strokeColor=none;fillColor=none;align=left;verticalAlign=middle;spacingLeft=4;spacingRight=4;overflow=hidden;points=[[0,0.5],[1,0.5]];portConstraint=eastwest;rotatable=0;whiteSpace=wrap;html=1;" vertex="1" parent="euV3vJY-Mf-4u7N78ft6-1">
          <mxGeometry y="30" width="210" height="30" as="geometry" />
        </mxCell>
        <mxCell id="euV3vJY-Mf-4u7N78ft6-3" value="nome&lt;br&gt;" style="text;strokeColor=none;fillColor=none;align=left;verticalAlign=middle;spacingLeft=4;spacingRight=4;overflow=hidden;points=[[0,0.5],[1,0.5]];portConstraint=eastwest;rotatable=0;whiteSpace=wrap;html=1;" vertex="1" parent="euV3vJY-Mf-4u7N78ft6-1">
          <mxGeometry y="60" width="210" height="30" as="geometry" />
        </mxCell>
        <mxCell id="euV3vJY-Mf-4u7N78ft6-4" value="idade" style="text;strokeColor=none;fillColor=none;align=left;verticalAlign=middle;spacingLeft=4;spacingRight=4;overflow=hidden;points=[[0,0.5],[1,0.5]];portConstraint=eastwest;rotatable=0;whiteSpace=wrap;html=1;" vertex="1" parent="euV3vJY-Mf-4u7N78ft6-1">
          <mxGeometry y="90" width="210" height="30" as="geometry" />
        </mxCell>
        <mxCell id="euV3vJY-Mf-4u7N78ft6-5" value="historico_de_reproducoes" style="text;strokeColor=none;fillColor=none;align=left;verticalAlign=middle;spacingLeft=4;spacingRight=4;overflow=hidden;points=[[0,0.5],[1,0.5]];portConstraint=eastwest;rotatable=0;whiteSpace=wrap;html=1;" vertex="1" parent="euV3vJY-Mf-4u7N78ft6-1">
          <mxGeometry y="120" width="210" height="30" as="geometry" />
        </mxCell>
        <mxCell id="euV3vJY-Mf-4u7N78ft6-6" value="data_reproducao" style="text;strokeColor=none;fillColor=none;align=left;verticalAlign=middle;spacingLeft=4;spacingRight=4;overflow=hidden;points=[[0,0.5],[1,0.5]];portConstraint=eastwest;rotatable=0;whiteSpace=wrap;html=1;" vertex="1" parent="euV3vJY-Mf-4u7N78ft6-1">
          <mxGeometry y="150" width="210" height="30" as="geometry" />
        </mxCell>
        <mxCell id="euV3vJY-Mf-4u7N78ft6-7" value="plano" style="text;strokeColor=none;fillColor=none;align=left;verticalAlign=middle;spacingLeft=4;spacingRight=4;overflow=hidden;points=[[0,0.5],[1,0.5]];portConstraint=eastwest;rotatable=0;whiteSpace=wrap;html=1;" vertex="1" parent="euV3vJY-Mf-4u7N78ft6-1">
          <mxGeometry y="180" width="210" height="30" as="geometry" />
        </mxCell>
        <mxCell id="euV3vJY-Mf-4u7N78ft6-8" value="data_assinatura" style="text;strokeColor=none;fillColor=none;align=left;verticalAlign=middle;spacingLeft=4;spacingRight=4;overflow=hidden;points=[[0,0.5],[1,0.5]];portConstraint=eastwest;rotatable=0;whiteSpace=wrap;html=1;" vertex="1" parent="euV3vJY-Mf-4u7N78ft6-1">
          <mxGeometry y="210" width="210" height="30" as="geometry" />
        </mxCell>
        <mxCell id="euV3vJY-Mf-4u7N78ft6-9" value="valor_plano" style="text;strokeColor=none;fillColor=none;align=left;verticalAlign=middle;spacingLeft=4;spacingRight=4;overflow=hidden;points=[[0,0.5],[1,0.5]];portConstraint=eastwest;rotatable=0;whiteSpace=wrap;html=1;" vertex="1" parent="euV3vJY-Mf-4u7N78ft6-1">
          <mxGeometry y="240" width="210" height="30" as="geometry" />
        </mxCell>
        <mxCell id="euV3vJY-Mf-4u7N78ft6-11" value="seguindo_artistas" style="text;strokeColor=none;fillColor=none;align=left;verticalAlign=middle;spacingLeft=4;spacingRight=4;overflow=hidden;points=[[0,0.5],[1,0.5]];portConstraint=eastwest;rotatable=0;whiteSpace=wrap;html=1;" vertex="1" parent="euV3vJY-Mf-4u7N78ft6-1">
          <mxGeometry y="270" width="210" height="30" as="geometry" />
        </mxCell>
        <mxCell id="euV3vJY-Mf-4u7N78ft6-14" value="albuns" style="swimlane;fontStyle=0;childLayout=stackLayout;horizontal=1;startSize=30;horizontalStack=0;resizeParent=1;resizeParentMax=0;resizeLast=0;collapsible=1;marginBottom=0;whiteSpace=wrap;html=1;swimlaneLine=1;" vertex="1" parent="1">
          <mxGeometry x="380" y="80" width="210" height="270" as="geometry">
            <mxRectangle x="80" y="130" width="90" height="30" as="alternateBounds" />
          </mxGeometry>
        </mxCell>
        <mxCell id="euV3vJY-Mf-4u7N78ft6-13" value="album_id" style="text;whiteSpace=wrap;html=1;" vertex="1" parent="euV3vJY-Mf-4u7N78ft6-14">
          <mxGeometry y="30" width="210" height="40" as="geometry" />
        </mxCell>
        <mxCell id="euV3vJY-Mf-4u7N78ft6-24" value="album" style="text;whiteSpace=wrap;html=1;" vertex="1" parent="euV3vJY-Mf-4u7N78ft6-14">
          <mxGeometry y="70" width="210" height="40" as="geometry" />
        </mxCell>
        <mxCell id="euV3vJY-Mf-4u7N78ft6-25" value="artista" style="text;whiteSpace=wrap;html=1;" vertex="1" parent="euV3vJY-Mf-4u7N78ft6-14">
          <mxGeometry y="110" width="210" height="40" as="geometry" />
        </mxCell>
        <mxCell id="euV3vJY-Mf-4u7N78ft6-26" value="cancoes" style="text;whiteSpace=wrap;html=1;" vertex="1" parent="euV3vJY-Mf-4u7N78ft6-14">
          <mxGeometry y="150" width="210" height="40" as="geometry" />
        </mxCell>
        <mxCell id="euV3vJY-Mf-4u7N78ft6-27" value="duracao_segundos" style="text;whiteSpace=wrap;html=1;" vertex="1" parent="euV3vJY-Mf-4u7N78ft6-14">
          <mxGeometry y="190" width="210" height="40" as="geometry" />
        </mxCell>
        <mxCell id="euV3vJY-Mf-4u7N78ft6-28" value="ano_lancamento" style="text;whiteSpace=wrap;html=1;" vertex="1" parent="euV3vJY-Mf-4u7N78ft6-14">
          <mxGeometry y="230" width="210" height="40" as="geometry" />
        </mxCell>
        <mxCell id="euV3vJY-Mf-4u7N78ft6-30" value="artistas" style="swimlane;fontStyle=0;childLayout=stackLayout;horizontal=1;startSize=30;horizontalStack=0;resizeParent=1;resizeParentMax=0;resizeLast=0;collapsible=1;marginBottom=0;whiteSpace=wrap;html=1;" vertex="1" parent="1">
          <mxGeometry x="80" y="390" width="140" height="90" as="geometry" />
        </mxCell>
        <mxCell id="euV3vJY-Mf-4u7N78ft6-31" value="artista_id" style="text;strokeColor=none;fillColor=none;align=left;verticalAlign=middle;spacingLeft=4;spacingRight=4;overflow=hidden;points=[[0,0.5],[1,0.5]];portConstraint=eastwest;rotatable=0;whiteSpace=wrap;html=1;" vertex="1" parent="euV3vJY-Mf-4u7N78ft6-30">
          <mxGeometry y="30" width="140" height="30" as="geometry" />
        </mxCell>
        <mxCell id="euV3vJY-Mf-4u7N78ft6-32" value="nome" style="text;strokeColor=none;fillColor=none;align=left;verticalAlign=middle;spacingLeft=4;spacingRight=4;overflow=hidden;points=[[0,0.5],[1,0.5]];portConstraint=eastwest;rotatable=0;whiteSpace=wrap;html=1;" vertex="1" parent="euV3vJY-Mf-4u7N78ft6-30">
          <mxGeometry y="60" width="140" height="30" as="geometry" />
        </mxCell>
        <mxCell id="euV3vJY-Mf-4u7N78ft6-36" value="planos" style="swimlane;fontStyle=0;childLayout=stackLayout;horizontal=1;startSize=30;horizontalStack=0;resizeParent=1;resizeParentMax=0;resizeLast=0;collapsible=1;marginBottom=0;whiteSpace=wrap;html=1;" vertex="1" parent="1">
          <mxGeometry x="70" y="650" width="140" height="120" as="geometry" />
        </mxCell>
        <mxCell id="euV3vJY-Mf-4u7N78ft6-37" value="plano_id" style="text;strokeColor=none;fillColor=none;align=left;verticalAlign=middle;spacingLeft=4;spacingRight=4;overflow=hidden;points=[[0,0.5],[1,0.5]];portConstraint=eastwest;rotatable=0;whiteSpace=wrap;html=1;" vertex="1" parent="euV3vJY-Mf-4u7N78ft6-36">
          <mxGeometry y="30" width="140" height="30" as="geometry" />
        </mxCell>
        <mxCell id="euV3vJY-Mf-4u7N78ft6-38" value="nome" style="text;strokeColor=none;fillColor=none;align=left;verticalAlign=middle;spacingLeft=4;spacingRight=4;overflow=hidden;points=[[0,0.5],[1,0.5]];portConstraint=eastwest;rotatable=0;whiteSpace=wrap;html=1;" vertex="1" parent="euV3vJY-Mf-4u7N78ft6-36">
          <mxGeometry y="60" width="140" height="30" as="geometry" />
        </mxCell>
        <mxCell id="euV3vJY-Mf-4u7N78ft6-39" value="valor" style="text;strokeColor=none;fillColor=none;align=left;verticalAlign=middle;spacingLeft=4;spacingRight=4;overflow=hidden;points=[[0,0.5],[1,0.5]];portConstraint=eastwest;rotatable=0;whiteSpace=wrap;html=1;" vertex="1" parent="euV3vJY-Mf-4u7N78ft6-36">
          <mxGeometry y="90" width="140" height="30" as="geometry" />
        </mxCell>
        <mxCell id="euV3vJY-Mf-4u7N78ft6-41" style="edgeStyle=orthogonalEdgeStyle;rounded=0;orthogonalLoop=1;jettySize=auto;html=1;exitX=0;exitY=0.25;exitDx=0;exitDy=0;entryX=1;entryY=0.5;entryDx=0;entryDy=0;" edge="1" parent="1" source="euV3vJY-Mf-4u7N78ft6-25" target="euV3vJY-Mf-4u7N78ft6-31">
          <mxGeometry relative="1" as="geometry" />
        </mxCell>
        <mxCell id="euV3vJY-Mf-4u7N78ft6-42" value="cancoes" style="swimlane;fontStyle=0;childLayout=stackLayout;horizontal=1;startSize=30;horizontalStack=0;resizeParent=1;resizeParentMax=0;resizeLast=0;collapsible=1;marginBottom=0;whiteSpace=wrap;html=1;" vertex="1" parent="1">
          <mxGeometry x="285" y="480" width="140" height="180" as="geometry" />
        </mxCell>
        <mxCell id="euV3vJY-Mf-4u7N78ft6-43" value="cancoes_id" style="text;strokeColor=none;fillColor=none;align=left;verticalAlign=middle;spacingLeft=4;spacingRight=4;overflow=hidden;points=[[0,0.5],[1,0.5]];portConstraint=eastwest;rotatable=0;whiteSpace=wrap;html=1;" vertex="1" parent="euV3vJY-Mf-4u7N78ft6-42">
          <mxGeometry y="30" width="140" height="30" as="geometry" />
        </mxCell>
        <mxCell id="euV3vJY-Mf-4u7N78ft6-47" value="nome" style="text;strokeColor=none;fillColor=none;align=left;verticalAlign=middle;spacingLeft=4;spacingRight=4;overflow=hidden;points=[[0,0.5],[1,0.5]];portConstraint=eastwest;rotatable=0;whiteSpace=wrap;html=1;" vertex="1" parent="euV3vJY-Mf-4u7N78ft6-42">
          <mxGeometry y="60" width="140" height="30" as="geometry" />
        </mxCell>
        <mxCell id="euV3vJY-Mf-4u7N78ft6-44" value="duracao_segundos" style="text;strokeColor=none;fillColor=none;align=left;verticalAlign=middle;spacingLeft=4;spacingRight=4;overflow=hidden;points=[[0,0.5],[1,0.5]];portConstraint=eastwest;rotatable=0;whiteSpace=wrap;html=1;" vertex="1" parent="euV3vJY-Mf-4u7N78ft6-42">
          <mxGeometry y="90" width="140" height="30" as="geometry" />
        </mxCell>
        <mxCell id="euV3vJY-Mf-4u7N78ft6-45" value="ano_lancamento" style="text;strokeColor=none;fillColor=none;align=left;verticalAlign=middle;spacingLeft=4;spacingRight=4;overflow=hidden;points=[[0,0.5],[1,0.5]];portConstraint=eastwest;rotatable=0;whiteSpace=wrap;html=1;" vertex="1" parent="euV3vJY-Mf-4u7N78ft6-42">
          <mxGeometry y="120" width="140" height="30" as="geometry" />
        </mxCell>
        <mxCell id="euV3vJY-Mf-4u7N78ft6-53" value="artista_id" style="text;strokeColor=none;fillColor=none;align=left;verticalAlign=middle;spacingLeft=4;spacingRight=4;overflow=hidden;points=[[0,0.5],[1,0.5]];portConstraint=eastwest;rotatable=0;whiteSpace=wrap;html=1;" vertex="1" parent="euV3vJY-Mf-4u7N78ft6-42">
          <mxGeometry y="150" width="140" height="30" as="geometry" />
        </mxCell>
        <mxCell id="euV3vJY-Mf-4u7N78ft6-46" style="edgeStyle=orthogonalEdgeStyle;rounded=0;orthogonalLoop=1;jettySize=auto;html=1;entryX=0;entryY=0.25;entryDx=0;entryDy=0;" edge="1" parent="1" source="euV3vJY-Mf-4u7N78ft6-44" target="euV3vJY-Mf-4u7N78ft6-26">
          <mxGeometry relative="1" as="geometry" />
        </mxCell>
        <mxCell id="euV3vJY-Mf-4u7N78ft6-49" style="edgeStyle=orthogonalEdgeStyle;rounded=0;orthogonalLoop=1;jettySize=auto;html=1;exitX=0;exitY=0.5;exitDx=0;exitDy=0;entryX=0;entryY=0.5;entryDx=0;entryDy=0;" edge="1" parent="1" source="euV3vJY-Mf-4u7N78ft6-31" target="euV3vJY-Mf-4u7N78ft6-45">
          <mxGeometry relative="1" as="geometry" />
        </mxCell>
        <mxCell id="euV3vJY-Mf-4u7N78ft6-50" style="edgeStyle=orthogonalEdgeStyle;rounded=0;orthogonalLoop=1;jettySize=auto;html=1;exitX=0;exitY=0.5;exitDx=0;exitDy=0;entryX=0;entryY=0.5;entryDx=0;entryDy=0;" edge="1" parent="1" source="euV3vJY-Mf-4u7N78ft6-31" target="euV3vJY-Mf-4u7N78ft6-11">
          <mxGeometry relative="1" as="geometry" />
        </mxCell>
        <mxCell id="euV3vJY-Mf-4u7N78ft6-51" style="edgeStyle=orthogonalEdgeStyle;rounded=0;orthogonalLoop=1;jettySize=auto;html=1;exitX=0;exitY=0.5;exitDx=0;exitDy=0;entryX=0;entryY=0.5;entryDx=0;entryDy=0;" edge="1" parent="1" source="euV3vJY-Mf-4u7N78ft6-37" target="euV3vJY-Mf-4u7N78ft6-7">
          <mxGeometry relative="1" as="geometry" />
        </mxCell>
        <mxCell id="euV3vJY-Mf-4u7N78ft6-52" style="edgeStyle=orthogonalEdgeStyle;rounded=0;orthogonalLoop=1;jettySize=auto;html=1;exitX=0;exitY=0.5;exitDx=0;exitDy=0;entryX=0;entryY=0.5;entryDx=0;entryDy=0;" edge="1" parent="1" source="euV3vJY-Mf-4u7N78ft6-39" target="euV3vJY-Mf-4u7N78ft6-9">
          <mxGeometry relative="1" as="geometry" />
        </mxCell>
        <mxCell id="euV3vJY-Mf-4u7N78ft6-54" style="edgeStyle=orthogonalEdgeStyle;rounded=0;orthogonalLoop=1;jettySize=auto;html=1;exitX=1;exitY=0.5;exitDx=0;exitDy=0;entryX=0;entryY=0.25;entryDx=0;entryDy=0;" edge="1" parent="1" source="euV3vJY-Mf-4u7N78ft6-45" target="euV3vJY-Mf-4u7N78ft6-28">
          <mxGeometry relative="1" as="geometry" />
        </mxCell>
        <mxCell id="euV3vJY-Mf-4u7N78ft6-55" style="edgeStyle=orthogonalEdgeStyle;rounded=0;orthogonalLoop=1;jettySize=auto;html=1;exitX=1;exitY=0.5;exitDx=0;exitDy=0;entryX=0;entryY=0.25;entryDx=0;entryDy=0;" edge="1" parent="1" source="euV3vJY-Mf-4u7N78ft6-43" target="euV3vJY-Mf-4u7N78ft6-26">
          <mxGeometry relative="1" as="geometry" />
        </mxCell>
      </root>
    </mxGraphModel>
  </diagram>
</mxfile>
